:version 1.10
:name ASF
:units
  mass 1
  length 1
  angle deg
:documentation
  ASF file generated by Kaydara
:root
  axis xyz
  order  tx ty tz rx ry rz
  position 0 0 0
  orientation 0 0 0
:bonedata
  begin
    id 1
    name RightUpLegDummy
    direction -1 2.30186e-007 8.31532e-007
    length 4.04083
    axis 0 0 0 xyz
  end
  begin
    id 2
    name RightUpLeg
    direction -0.000919234 -0.999985 0.00544864
    length 17.4221
    axis -3.80308 -0.00076134 -0.0523649 xyz
    dof rx ry rz
  end
  begin
    id 3
    name RightLeg
    direction -0.000919271 -0.999984 -0.00555045
    length 17.1239
    axis 4.00314 0.0181274 -0.183583 xyz
    dof rx ry rz
  end
  begin
    id 4
    name RightFoot
    direction -2.57843e-005 -4.04509e-007 1
    length 6.72091
    axis 8.18909e-005 -0.122003 -0.403008 xyz
    dof rx ry rz
  end
  begin
    id 5
    name RightToes
    direction 0.00116825 -0.014069 0.9999
    length 3.85082
    axis 0.000514414 0.540638 -0.356797 xyz
    dof rx ry rz
  end
  begin
    id 6
    name SpineDummy
    direction 0.0168869 0.966876 -0.254689
    length 6.99894
    axis 0 0 0 xyz
  end
  begin
    id 7
    name Spine
    direction -0.0132008 0.999903 0.00446247
    length 11.1999
    axis -0.00148109 0.00725429 0.756411 xyz
    dof rx ry rz
  end
  begin
    id 8
    name Spine1
    direction 0 0 0
    length 0
    axis -0.000934958 0.0245693 1.46543 xyz
    dof rx ry rz
  end
  begin
    id 9
    name HEadDummy
    direction -0.0255732 0.999672 0.00128215
    length 3.43865
    axis -0.000934958 0.0245693 1.46543 xyz
  end
  begin
    id 10
    name HEad
    direction -0.0472656 0.980052 0.19304
    length 5.12695
    axis -0.000934954 0.0245693 1.46543 xyz
    dof rx ry rz
  end
  begin
    id 11
    name LeftShoulder1Dummy
    direction 0.953098 0.301717 -0.023914
    length 3.68488
    axis -0.000934958 0.0245693 1.46543 xyz
  end
  begin
    id 12
    name LeftShoulder1
    direction 0.962466 0.271167 0.0112566
    length 3.13809
    axis -0.000934958 0.0245693 1.46543 xyz
    dof rx ry rz
  end
  begin
    id 13
    name LeftArm
    direction 0.999943 0.00455037 -0.00961766
    length 11.3419
    axis -23.1648 0.685459 1.22814 xyz
    dof rx ry rz
  end
  begin
    id 14
    name LeftForeArm
    direction 0.999332 0.0131969 0.0340885
    length 8.70632
    axis -9.90633 0.618216 0.0826942 xyz
    dof rx ry rz
  end
  begin
    id 15
    name LeftHand
    direction 0.994373 -0.0366703 0.0993905
    length 5.32135
    axis 0.00675269 0.680415 0.445699 xyz
    dof rx ry rz
  end
  begin
    id 16
    name RightShoulderDummy
    direction -0.967298 0.252589 -0.0230903
    length 3.68488
    axis -0.000934958 0.0245693 1.46543 xyz
  end
  begin
    id 17
    name RightShoulder
    direction -0.975062 0.221602 0.0120823
    length 3.13809
    axis 0.216257 0.0246515 1.45863 xyz
    dof rx ry rz
  end
  begin
    id 18
    name RightArm
    direction -0.99886 -0.00851186 -0.0469687
    length 10.3947
    axis -23.196 0.23503 -0.532632 xyz
    dof rx ry rz
  end
  begin
    id 19
    name RightForeArm
    direction -0.99909 0.00114866 0.0426317
    length 8.68355
    axis -9.91764 -0.134943 0.610517 xyz
    dof rx ry rz
  end
  begin
    id 20
    name RightHand
    direction -0.992888 -0.0489538 0.10852
    length 5.28593
    axis -0.00275396 -0.197403 0.246414 xyz
    dof rx ry rz
  end
  begin
    id 21
    name LeftUpLegDummy
    direction 1 -2.30186e-007 -8.31532e-007
    length 4.04083
    axis 0 0 0 xyz
  end
  begin
    id 22
    name LeftUpLeg
    direction -0.000920097 -1 2.79241e-006
    length 17.4221
    axis -3.48782 0.00143434 -0.0532288 xyz
    dof rx ry rz
  end
  begin
    id 23
    name LeftLeg
    direction -0.000920097 -1 2.7912e-006
    length 17.1239
    axis 3.68162 -0.00806512 -0.0529896 xyz
    dof rx ry rz
  end
  begin
    id 24
    name LeftFoot
    direction -2.57845e-005 -3.987e-007 1
    length 6.72091
    axis 3.02372e-005 -0.00147829 -0.214229 xyz
    dof rx ry rz
  end
  begin
    id 25
    name LeftToes
    direction 0.00813577 -0.00488255 0.999955
    length 3.85048
    axis 3.89895e-005 -0.0014783 -0.214229 xyz
    dof rx ry rz
  end
:hierarchy
  begin
    root RightUpLegDummy SpineDummy LeftUpLegDummy
    RightUpLegDummy RightUpLeg
    RightUpLeg RightLeg
    RightLeg RightFoot
    RightFoot RightToes
    SpineDummy Spine
    Spine Spine1
    Spine1 HEadDummy LeftShoulder1Dummy RightShoulderDummy
    HEadDummy HEad
    LeftShoulder1Dummy LeftShoulder1
    LeftShoulder1 LeftArm
    LeftArm LeftForeArm
    LeftForeArm LeftHand
    RightShoulderDummy RightShoulder
    RightShoulder RightArm
    RightArm RightForeArm
    RightForeArm RightHand
    LeftUpLegDummy LeftUpLeg
    LeftUpLeg LeftLeg
    LeftLeg LeftFoot
    LeftFoot LeftToes
  end

:SAMPLES-PER-SECOND 30
:FULLY-SPECIFIED
:DEGREES
71
root  -10.5138 34.7344 -12.3999 -171.322 6.47661 -179.701
RightUpLeg  -4.17336 -15.1431 -2.5003
RightLeg  1.01377 -2.77311 0.138203
RightFoot  7.03364 0.0694003 -0.187036
RightToes  -27.3097 -0.117119 -0.230814
Spine  -2.81592 0.619136 -1.18597
Spine1  -5.49209 0.941089 -1.45468
HEad  -64.2342 8.90712 8.22481
LeftShoulder1  -1.94126e-019 -3.10601e-018 -2.51263e-017
LeftArm  -9.66769 25.488 -75.2669
LeftForeArm  34.4573 -18.3603 -3.07536
LeftHand  -0.250396 -0.190866 5.27263
RightShoulder  -4.96962e-017 0 -2.36833e-017
RightArm  -30.3653 -0.676274 48.8342
RightForeArm  -130.307 55.6477 169.292
RightHand  -1.27521 -1.39485 -36.1366
LeftUpLeg  -4.33614 3.67611 3.72238
LeftLeg  0.321018 13.6884 -0.796208
LeftFoot  7.95067 -0.137404 2.09506
LeftToes  -26.2512 2.14545e-006 -7.7278e-009
72
root  -10.5065 34.7359 -12.4013 -171.273 6.26477 -179.686
RightUpLeg  -4.1772 -15.3683 -2.45541
RightLeg  1.00574 -2.75507 0.136669
RightFoot  7.04765 0.0690316 -0.181152
RightToes  -27.3393 -0.117119 -0.230814
Spine  -2.8404 0.718941 -1.17821
Spine1  -5.56356 1.18374 -1.46166
HEad  -63.8923 8.84777 8.29568
LeftShoulder1  -1.94126e-019 -3.10601e-018 -2.51263e-017
LeftArm  -9.61613 25.7049 -75.2398
LeftForeArm  34.0953 -18.6926 -3.10206
LeftHand  -0.248426 -0.144723 5.27047
RightShoulder  -4.96962e-017 0 -2.36833e-017
RightArm  -36.5812 -1.3775 50.6775
RightForeArm  -135.623 57.189 168.351
RightHand  -0.958047 -2.24034 -34.5412
LeftUpLeg  -4.44564 3.64669 3.76087
LeftLeg  0.372681 13.5179 -0.77437
LeftFoot  7.99081 -0.136339 2.08211
LeftToes  -26.4077 2.14545e-006 -7.7278e-009
73
root  -10.5093 34.7334 -12.4073 -171.182 5.91902 -179.704
RightUpLeg  -4.16813 -15.7552 -2.4452
RightLeg  0.929206 -2.70336 0.130107
RightFoot  7.03806 0.0682778 -0.170137
RightToes  -27.3198 -0.117119 -0.230814
Spine  -2.87707 0.692477 -1.16881
Spine1  -5.65722 1.17082 -1.45956
HEad  -63.3516 8.91923 8.30105
LeftShoulder1  -1.94126e-019 -3.10601e-018 -2.51263e-017
LeftArm  -9.25747 26.0993 -75.1749
LeftForeArm  33.6391 -19.29 -3.15191
LeftHand  -0.242277 -0.160437 5.12756
RightShoulder  -4.96962e-017 0 -2.36833e-017
RightArm  -44.7036 -0.374413 52.8935
RightForeArm  -146.094 60.1744 166.204
RightHand  -0.435055 -3.8012 -31.224
LeftUpLeg  -4.63001 3.44264 3.75533
LeftLeg  0.452794 13.4085 -0.749596
LeftFoot  7.94457 -0.134516 2.05734
LeftToes  -26.3023 2.14545e-006 -7.7278e-009
74
root  -10.5163 34.7293 -12.4197 -171.089 5.65198 -179.744
RightUpLeg  -4.18006 -15.9584 -2.46603
RightLeg  0.885535 -2.76888 0.139128
RightFoot  7.01242 0.0680352 -0.166806
RightToes  -27.3719 -0.117119 -0.230814
Spine  -2.95013 0.600691 -1.1405
Spine1  -5.82303 1.02447 -1.42512
HEad  -62.5658 8.99406 8.43851
LeftShoulder1  -1.94126e-019 -3.10601e-018 -2.51263e-017
LeftArm  -8.43977 26.5468 -75.1183
LeftForeArm  33.1649 -19.622 -3.16685
LeftHand  -0.23496 -0.206921 4.93662
RightShoulder  -4.96962e-017 0 -2.36833e-017
RightArm  -52.734 2.28708 54.372
RightForeArm  -159.645 64.235 162.506
RightHand  0.205913 -6.2146 -28.7345
LeftUpLeg  -4.81939 3.44765 3.71674
LeftLeg  0.578869 13.1507 -0.706695
LeftFoot  7.91401 -0.131485 2.01368
LeftToes  -26.3094 2.14545e-006 -7.7278e-009
75
root  -10.5284 34.7259 -12.4353 -171.029 5.56204 -179.781
RightUpLeg  -4.18515 -15.9424 -2.50779
RightLeg  0.846217 -2.88174 0.154011
RightFoot  7.01077 0.0679869 -0.16664
RightToes  -27.4161 -0.117119 -0.230814
Spine  -3.02976 0.578925 -1.11859
Spine1  -6 1.01247 -1.41321
HEad  -61.6728 8.65263 8.97374
LeftShoulder1  -1.94126e-019 -3.10601e-018 -2.51263e-017
LeftArm  -7.60444 26.6754 -75.1202
LeftForeArm  33.0857 -19.4677 -3.13502
LeftHand  -0.225538 -0.280318 4.68553
RightShoulder  -4.96962e-017 0 -2.36833e-017
RightArm  -60.2747 5.76427 54.8341
RightForeArm  -174.212 68.1335 157.516
RightHand  0.85446 -9.1007 -26.478
LeftUpLeg  -4.93109 3.58204 3.66256
LeftLeg  0.689143 12.9305 -0.670342
LeftFoot  7.8669 -0.128535 1.9712
LeftToes  -26.3887 2.14545e-006 -7.7278e-009
76
root  -10.5383 34.7255 -12.4582 -170.994 5.54276 -179.806
RightUpLeg  -4.1845 -16.028 -2.54691
RightLeg  0.842597 -2.8433 0.147336
RightFoot  6.98302 0.0680851 -0.168962
RightToes  -27.431 -0.117119 -0.230814
Spine  -3.08458 0.655664 -1.12715
Spine1  -6.12196 1.18733 -1.44961
HEad  -61.0804 7.89726 9.69588
LeftShoulder1  -1.94126e-019 -3.10601e-018 -2.51263e-017
LeftArm  -7.29067 26.4196 -75.1964
LeftForeArm  33.3704 -19.0781 -3.09563
LeftHand  -0.231773 -0.375783 4.74347
RightShoulder  -4.96962e-017 0 -2.36833e-017
RightArm  -66.1094 8.74701 54.1778
RightForeArm  173.23 70.2449 153.403
RightHand  1.50319 -12.3859 -24.7005
LeftUpLeg  -4.93435 3.50551 3.62241
LeftLeg  0.684487 12.9822 -0.674019
LeftFoot  7.84622 -0.128503 1.97399
LeftToes  -26.3594 2.14545e-006 -7.7278e-009
77
root  -10.553 34.7266 -12.4849 -170.987 5.48801 -179.855
RightUpLeg  -4.13691 -16.125 -2.6313
RightLeg  0.824542 -2.81305 0.1409
RightFoot  6.98422 0.0682816 -0.173094
RightToes  -27.4524 -0.117119 -0.230814
Spine  -3.12664 0.694337 -1.13799
Spine1  -6.21158 1.27514 -1.47052
HEad  -60.8119 7.20133 10.1853
LeftShoulder1  -1.94126e-019 -3.10601e-018 -2.51263e-017
LeftArm  -7.66885 26.2259 -75.3553
LeftForeArm  33.4853 -18.9634 -3.09589
LeftHand  -0.240177 -0.237848 5.02085
RightShoulder  -4.96962e-017 0 -2.36833e-017
RightArm  -68.1453 10.5885 52.6922
RightForeArm  167.702 70.5416 152.244
RightHand  1.73455 -13.4652 -24.6523
LeftUpLeg  -4.8744 3.35992 3.54951
LeftLeg  0.599536 13.0855 -0.698564
LeftFoot  7.86148 -0.129477 1.99231
LeftToes  -26.3308 2.14545e-006 -7.7278e-009
78
root  -10.565 34.7277 -12.5181 -171.034 5.43327 -179.933
RightUpLeg  -4.02267 -16.0992 -2.75648
RightLeg  0.807407 -2.88908 0.145565
RightFoot  6.96704 0.0687814 -0.181974
RightToes  -27.4868 -0.117119 -0.230814
Spine  -3.14483 0.655219 -1.14499
Spine1  -6.2444 1.19304 -1.46153
HEad  -60.7989 6.71972 10.3625
LeftShoulder1  -1.94126e-019 -3.10601e-018 -2.51263e-017
LeftArm  -8.28645 26.2539 -75.5268
LeftForeArm  33.3107 -19.2862 -3.14816
LeftHand  -0.242725 -0.132428 5.16031
RightShoulder  -4.96962e-017 0 -2.36833e-017
RightArm  -65.3506 11.0556 50.5695
RightForeArm  175.548 68.708 155.676
RightHand  1.47962 -12.2934 -24.6469
LeftUpLeg  -4.74359 3.20496 3.4574
LeftLeg  0.498957 13.1579 -0.725304
LeftFoot  7.88218 -0.130254 2.00742
LeftToes  -26.0577 2.14545e-006 -7.7278e-009
